<svg width="766" height="528" xmlns="http://www.w3.org/2000/svg" xml:space="preserve" enable-background="new 0 0 766 528" version="1.1">

 <g>
  <title>Layer 1</title>
  <path id="svg_2" d="m15.00048,270c-0.0023,-67.49907 0.03681,-134.49824 -0.10592,-201.497c-0.00815,-3.82538 1.24698,-5.89611 4.28437,-7.9992c23.12448,-16.01148 46.11663,-32.21407 69.15347,-48.35217c1.35521,-0.94938 2.74052,-1.85579 4.30749,-2.91437c25.18782,17.21176 50.53713,34.1009 75.31971,51.78429c5.92453,4.22739 10.04144,11.03379 14.85183,16.76969c40.14183,47.86495 80.25113,95.75722 120.37604,143.63634c0.30832,0.36791 0.69739,0.66811 1.80893,1.71777c0,-2.41278 -0.00363,-4.13055 0.00049,-5.84829c0.11874,-49.49948 0.28909,-98.99899 0.25811,-148.49837c-0.00237,-3.83031 1.27979,-5.95869 4.31943,-8.06803c22.42408,-15.56101 44.72058,-31.30573 67.06659,-46.9793c2.16232,-1.51665 4.38812,-2.94275 6.70474,-4.49129c24.64817,16.83477 49.59079,32.86984 73.30185,50.55604c9.53778,7.11431 16.59156,17.66774 24.40171,26.97007c31.06335,36.99832 61.97204,74.12643 92.95477,111.19246c6.90009,8.25479 13.86816,16.45277 21.75903,25.80815c0,-3.02696 -0.00238,-4.60146 0.00031,-6.17594c0.08435,-49.83288 0.20288,-99.66577 0.17547,-149.49859c-0.00177,-3.18879 0.90119,-5.1383 3.51325,-6.95974c21.84534,-15.233 43.59778,-30.59912 65.38214,-45.91948c0.95258,-0.66995 1.99878,-1.21583 2.9071,-1.93807c4.04987,-3.22022 7.57984,-2.9065 11.97272,0.1378c22.97235,15.91987 46.13855,31.56193 69.36017,47.11732c2.83203,1.89709 2.72876,4.18168 2.72851,6.83734c-0.00744,80.99949 -0.00402,161.99897 -0.00311,242.99847c0.00061,48.99969 -0.04895,97.99957 0.08954,146.99887c0.01154,4.06759 -1.04053,6.63998 -4.48486,9.03561c-23.91004,16.63049 -47.67682,33.46735 -71.43628,50.31314c-2.03375,1.44202 -3.4552,1.77167 -5.67249,0.15515c-23.26788,-16.9631 -47.11474,-33.18109 -69.7304,-50.96716c-9.90699,-7.79132 -17.68793,-18.43524 -25.85321,-28.26651c-37.03693,-44.59363 -73.86628,-89.35962 -110.77497,-134.05979c-0.39328,-0.47628 -0.84866,-0.90127 -1.84839,-1.95382c-0.11038,2.25427 -0.24588,3.81232 -0.25448,5.37112c-0.27921,50.49878 -0.58265,100.99753 -0.7388,151.49674c-0.01126,3.64169 -0.89472,5.92984 -4.05988,8.11914c-23.67941,16.3789 -47.1904,33.00122 -70.75857,49.54104c-1.21305,0.85126 -2.46622,1.64539 -3.7601,2.50556c-25.33591,-18.06195 -50.93421,-35.52286 -75.53608,-54.29004c-8.27203,-6.31018 -14.09939,-15.86813 -20.89181,-24.06787c-36.12908,-43.61487 -72.21202,-87.26801 -108.30126,-130.9159c-2.01141,-2.4327 -3.93614,-4.9371 -6.73597,-8.45782c-0.14447,2.694 -0.30669,4.35931 -0.31253,6.02515c-0.17691,50.49765 -0.38347,100.99527 -0.41411,151.49304c-0.00238,3.90509 -1.11652,6.28311 -4.38079,8.5282c-23.30439,16.02816 -46.50576,32.20776 -69.61711,48.51324c-3.17117,2.2373 -5.45912,2.52228 -8.69844,0.18604c-23.48977,-16.94153 -47.12697,-33.67884 -70.57623,-50.67566c-1.32269,-0.95874 -1.96768,-3.63611 -1.97187,-5.51572c-0.1056,-47.33228 -0.08317,-94.66482 -0.08244,-141.99734c0.00024,-15.66678 0.00276,-31.33353 0.00233,-47.50031m98.32219,227.82645c15.83895,-11.0358 31.60364,-22.181 47.57587,-33.02042c3.43682,-2.33237 4.61834,-4.78085 4.62294,-8.90472c0.10128,-90.65699 0.3595,-181.31375 0.58707,-271.97059c0.00418,-1.66603 0.00053,-3.3321 0.00053,-6.4091c47.4451,57.3505 93.82937,113.41866 140.85088,170.25713c0.142,-1.96375 0.22794,-2.61661 0.2309,-3.26987c0.16256,-35.82864 0.36053,-71.65732 0.36551,-107.48599c0.00027,-2.0677 -1.11942,-4.51604 -2.48282,-6.14824c-41.64472,-49.8537 -83.38184,-99.63023 -125.11652,-149.40875c-4.2357,-5.05208 -8.54665,-10.04112 -12.81332,-15.04846c-1.08603,0.63159 -1.67266,0.93144 -2.21666,1.29505c-23.37697,15.62423 -46.78473,31.20319 -70.04269,47.00267c-1.48565,1.00924 -2.55993,3.73243 -2.5617,5.65945c-0.11901,129.31977 -0.10898,258.63967 -0.09375,387.95956c0.00015,1.18817 0.21978,2.37634 0.38488,4.05047c7.06808,-4.99972 13.57535,-9.60275 20.70888,-14.55819m369.29632,-288.94092c37.92325,45.8995 75.84652,91.79901 114.61661,138.72342c0.25494,-2.78601 0.46801,-4.04712 0.47149,-5.30881c0.09686,-35.16278 0.21607,-70.32568 0.13996,-105.48816c-0.0044,-2.03683 -1.19635,-4.42555 -2.55243,-6.05327c-36.67469,-44.01973 -73.43567,-87.96754 -110.20096,-131.91172c-9.07239,-10.84392 -18.21005,-21.63321 -27.31387,-32.44304c-1.01725,0.47039 -1.65934,0.66931 -2.19373,1.02849c-23.47437,15.77726 -46.97479,31.51672 -70.32111,47.48142c-1.47497,1.00862 -2.46481,3.78572 -2.4653,5.74036c-0.03116,128.1537 0.0632,256.30745 0.1463,384.46117c0.00135,2.07 0.00016,4.13998 0.00016,6.84665c2.45501,-1.51902 4.17291,-2.47827 5.78259,-3.5936c20.92773,-14.50052 41.77896,-29.11289 62.81378,-43.45612c3.70502,-2.5264 5.08649,-5.1838 5.08395,-9.70215c-0.05035,-90.32031 0.07578,-180.64074 0.1811,-270.96113c0.00204,-1.73245 0.18344,-3.46469 0.34198,-6.27503c8.79827,10.69767 16.89407,20.54122 25.46948,30.91152m191.2543,298.25601c0,1.23813 0,2.47623 0,4.43192c1.74146,-1.05698 2.72821,-1.58494 3.6405,-2.22001c22.39045,-15.58715 44.81745,-31.12298 67.06098,-46.91741c1.55359,-1.10315 2.45166,-4.1381 2.45257,-6.27524c0.05561,-128.12833 -0.01434,-256.25672 -0.08404,-384.38507c-0.00073,-1.37928 -0.15467,-2.75847 -0.25134,-4.37603c-0.8985,0.44339 -1.36219,0.61081 -1.75959,0.87711c-22.93304,15.36813 -45.89788,30.68971 -68.70117,46.2481c-1.45831,0.99499 -2.34833,3.8299 -2.34955,5.8096c-0.08069,128.62869 -0.04199,257.25741 -0.00836,386.80703m-276.6702,-482.857c-4.71038,-3.05326 -9.42077,-6.10651 -14.30227,-9.27067c-23.64884,16.56148 -47.05228,32.95109 -70.79468,49.5781c22.97382,15.92798 45.74063,31.71247 68.63925,47.58834c24.24219,-16.33627 48.17673,-32.46522 73.08783,-49.25228c-19.06781,-12.99627 -37.55987,-25.60014 -56.63013,-38.64349m-297.54595,-4.48516c-7.14122,-4.8552 -7.12633,-4.83391 -13.93919,-0.07041c-11.59021,8.10377 -23.20891,16.16679 -34.80115,24.26766c-9.65993,6.75053 -19.29908,13.5308 -29.58764,20.74692c23.19185,15.97945 45.8804,31.61211 68.7506,47.36995c24.25976,-16.30537 48.49875,-32.59679 73.31718,-49.27766c-21.31611,-14.41538 -42.21044,-28.54551 -63.7398,-43.03646m643.90634,43.50174c-0.80872,-0.91882 -1.46839,-2.05619 -2.44812,-2.72426c-20.87311,-14.23365 -41.83252,-28.34139 -62.63251,-42.68058c-3.32611,-2.29296 -5.76831,-2.03229 -8.86627,0.12683c-16.77417,11.69067 -33.65851,23.223 -50.45746,34.87823c-5.28491,3.66668 -10.4231,7.54488 -16.30231,11.81578c23.28076,16.11666 45.91065,31.78276 68.33026,47.30328c24.15753,-16.19483 48.03369,-32.20103 72.37641,-48.71928z" fill="#020202"/>
  <path id="svg_3" d="m113.00954,498.00263c-6.8204,4.77926 -13.32767,9.38229 -20.39575,14.38201c-0.1651,-1.67413 -0.38473,-2.8623 -0.38488,-4.05047c-0.01523,-129.31989 -0.02526,-258.63979 0.09375,-387.95956c0.00177,-1.92702 1.07605,-4.65021 2.5617,-5.65945c23.25796,-15.79948 46.66572,-31.37844 70.04269,-47.00267c0.544,-0.36361 1.13063,-0.66346 2.21666,-1.29505c4.26667,5.00734 8.57762,9.99638 12.81332,15.04846c41.73468,49.77852 83.4718,99.55505 125.11652,149.40875c1.3634,1.6322 2.48309,4.08054 2.48282,6.14824c-0.00498,35.82867 -0.20295,71.65735 -0.36551,107.48599c-0.00296,0.65326 -0.0889,1.30612 -0.2309,3.26987c-47.02151,-56.83847 -93.40578,-112.90663 -140.85088,-170.25713c0,3.077 0.00365,4.74307 -0.00053,6.4091c-0.22757,90.65684 -0.48579,181.3136 -0.58707,271.97059c-0.0046,4.12387 -1.18612,6.57235 -4.62294,8.90472c-15.97223,10.83942 -31.73692,21.98462 -47.889,33.1966z" fill="#E5E4E5"/>
  <path id="svg_4" d="m482.37921,208.62215c-8.33563,-10.10692 -16.43143,-19.95047 -25.2297,-30.64814c-0.15854,2.81034 -0.33994,4.54258 -0.34198,6.27503c-0.10532,90.32039 -0.23145,180.64082 -0.1811,270.96114c0.00254,4.51834 -1.37893,7.17574 -5.08395,9.70214c-21.03482,14.34323 -41.88605,28.9556 -62.81378,43.45612c-1.60968,1.11533 -3.32758,2.07458 -5.78259,3.5936c0,-2.70667 0.00119,-4.77665 -0.00016,-6.84665c-0.0831,-128.15372 -0.17746,-256.30747 -0.1463,-384.46117c0.00049,-1.95464 0.99033,-4.73174 2.4653,-5.74036c23.34632,-15.9647 46.84674,-31.70416 70.32111,-47.48142c0.53439,-0.35918 1.17648,-0.5581 2.19373,-1.02849c9.10382,10.80983 18.24148,21.59912 27.31387,32.44304c36.76529,43.94418 73.52627,87.89199 110.20096,131.91172c1.35608,1.62772 2.54803,4.01644 2.55243,6.05327c0.07611,35.16248 -0.0431,70.32538 -0.13996,105.48816c-0.00348,1.26169 -0.21655,2.5228 -0.47149,5.30881c-38.77009,-46.92441 -76.69336,-92.82392 -114.85639,-138.9868z" fill="#E5E4E5"/>
  <path id="svg_5" d="m673.87054,506.68109c-0.03088,-129.08917 -0.06958,-257.71789 0.01111,-386.34658c0.00122,-1.9797 0.89124,-4.81461 2.34955,-5.8096c22.80329,-15.55839 45.76813,-30.87997 68.70117,-46.2481c0.3974,-0.2663 0.86109,-0.43372 1.75959,-0.87711c0.09667,1.61756 0.25061,2.99675 0.25134,4.37603c0.0697,128.12835 0.13965,256.25674 0.08404,384.38507c-0.00091,2.13714 -0.89898,5.17209 -2.45257,6.27524c-22.24353,15.79443 -44.67053,31.33026 -67.06098,46.91741c-0.91229,0.63507 -1.89904,1.16303 -3.6405,2.22001c0,-1.95569 0,-3.19379 -0.00275,-4.89237z" fill="#E6E5E6"/>
  <path id="svg_6" d="m397.49219,24.50428c18.78116,12.82361 37.27322,25.42748 56.34103,38.42375c-24.9111,16.78706 -48.84564,32.91601 -73.08783,49.25228c-22.89862,-15.87587 -45.66543,-31.66036 -68.63925,-47.58834c23.7424,-16.62701 47.14584,-33.01662 70.79468,-49.5781c4.8815,3.16416 9.59189,6.21741 14.59137,9.49041z" fill="#E5E4E5"/>
  <path id="svg_7" d="m99.97465,19.97979c21.21185,14.31054 42.10618,28.44067 63.42229,42.85605c-24.81843,16.68087 -49.05742,32.97229 -73.31718,49.27766c-22.8702,-15.75784 -45.55875,-31.3905 -68.7506,-47.36995c10.28856,-7.21612 19.92771,-13.99639 29.58764,-20.74692c11.59224,-8.10087 23.21094,-16.16389 34.80115,-24.26766c6.81286,-4.7635 6.79797,-4.78479 14.2567,0.25082z" fill="#E5E4E5"/>
  <path id="svg_8" d="m743.3302,63.55714c-24.10944,16.26223 -47.9856,32.26843 -72.14313,48.46326c-22.41961,-15.52052 -45.0495,-31.18662 -68.33026,-47.30328c5.87921,-4.2709 11.0174,-8.1491 16.30231,-11.81578c16.79895,-11.65523 33.68329,-23.18756 50.45746,-34.87823c3.09796,-2.15912 5.54016,-2.41979 8.86627,-0.12683c20.79999,14.33919 41.7594,28.44693 62.63251,42.68058c0.97973,0.66807 1.6394,1.80544 2.21484,2.98028z" fill="#E5E4E5"/>
 </g>
</svg>