<svg version="1.1" id="Layer_1" xmlns="http://www.w3.org/2000/svg" xmlns:xlink="http://www.w3.org/1999/xlink" x="0px" y="0px"
	 width="100%" viewBox="0 0 404 421" enable-background="new 0 0 404 421" xml:space="preserve">
<path fill="#FEFEFE" opacity="1.000000" stroke="none" 
	d="
M405.000000,161.000000 
	C405.000000,248.333328 405.000000,335.166656 405.000000,422.000000 
	C270.333344,422.000000 135.666672,422.000000 1.000000,422.000000 
	C1.000000,281.666656 1.000000,141.333328 1.000000,1.000000 
	C135.666672,1.000000 270.333344,1.000000 405.000000,1.000000 
	C405.000000,54.166668 405.000000,107.333336 405.000000,161.000000 
M380.252075,231.495117 
	C380.168915,195.331955 379.990723,159.168472 380.109161,123.005966 
	C380.126129,117.822662 379.229706,114.707657 374.079041,111.909760 
	C358.543304,103.470589 343.512360,94.102280 328.253662,85.077965 
	C313.660614,93.430199 299.179260,101.718506 284.671967,110.021667 
	C281.514343,101.979317 278.378235,94.823334 275.881989,87.450706 
	C271.483826,74.460899 267.507538,61.328598 263.246033,48.291470 
	C262.902435,47.240345 261.889221,46.180599 260.906464,45.599579 
	C242.149460,34.509712 223.325974,23.532139 204.588150,12.410180 
	C202.006729,10.877957 200.135727,10.721263 197.375122,12.365945 
	C179.067001,23.273384 160.700836,34.093334 142.114014,44.514488 
	C138.469238,46.558018 137.166092,48.662651 137.176758,52.577515 
	C137.225327,70.408607 137.088715,88.240257 136.998703,106.071602 
	C136.990082,107.776375 136.842880,109.480431 136.736115,111.676361 
	C134.655273,110.657883 133.283936,110.106812 132.032562,109.355865 
	C117.125725,100.410370 102.189728,91.511627 87.379257,82.408836 
	C84.066032,80.372467 81.524094,80.624718 78.256210,82.584740 
	C61.120125,92.862640 43.926388,103.052567 26.547470,112.911301 
	C22.573818,115.165489 20.943392,117.517693 20.955318,122.150307 
	C21.094341,176.144730 21.021690,230.139679 21.013414,284.134491 
	C21.012751,288.467255 20.863707,292.817474 21.220327,297.123383 
	C21.345364,298.633118 22.421457,300.628448 23.677618,301.393921 
	C38.460907,310.403015 53.404671,319.148682 68.192291,328.150787 
	C71.028915,329.877594 73.139748,329.455170 75.761147,327.898743 
	C87.621185,320.856934 99.572708,313.969238 111.913422,306.780121 
	C114.410507,311.686127 116.757607,316.387512 119.183731,321.047760 
	C127.588715,337.192596 135.856537,353.412933 144.569260,369.390381 
	C146.528946,372.984039 149.548920,376.570557 152.987366,378.688660 
	C168.542038,388.270508 184.421890,397.324463 200.341965,406.660797 
	C216.423462,397.067078 232.541946,387.506744 248.561722,377.783722 
	C249.773834,377.048035 251.009277,375.158203 251.013580,373.800995 
	C251.101364,346.137360 251.052872,318.472931 250.921127,290.809204 
	C250.894562,285.232086 250.417557,279.657074 250.149750,274.112427 
	C251.170258,274.016602 251.589035,273.841003 251.775940,273.979156 
	C266.004181,284.495697 280.312042,294.908356 294.392426,305.619904 
	C304.382294,313.219666 314.132477,321.141083 323.838379,329.103333 
	C326.639557,331.401245 328.727020,331.047058 331.645020,329.288147 
	C346.456451,320.360107 361.330536,311.527313 376.384644,303.018433 
	C379.159363,301.450104 380.159882,299.994965 380.153625,296.976562 
	C380.109161,275.481995 380.202545,253.987137 380.252075,231.495117 
z"/>
<path fill="#060606" opacity="1.000000" stroke="none" 
	d="
M380.252075,231.993744 
	C380.202545,253.987137 380.109161,275.481995 380.153625,296.976562 
	C380.159882,299.994965 379.159363,301.450104 376.384644,303.018433 
	C361.330536,311.527313 346.456451,320.360107 331.645020,329.288147 
	C328.727020,331.047058 326.639557,331.401245 323.838379,329.103333 
	C314.132477,321.141083 304.382294,313.219666 294.392426,305.619904 
	C280.312042,294.908356 266.004181,284.495697 251.775940,273.979156 
	C251.589035,273.841003 251.170258,274.016602 250.149750,274.112427 
	C250.417557,279.657074 250.894562,285.232086 250.921127,290.809204 
	C251.052872,318.472931 251.101364,346.137360 251.013580,373.800995 
	C251.009277,375.158203 249.773834,377.048035 248.561722,377.783722 
	C232.541946,387.506744 216.423462,397.067078 200.341965,406.660797 
	C184.421890,397.324463 168.542038,388.270508 152.987366,378.688660 
	C149.548920,376.570557 146.528946,372.984039 144.569260,369.390381 
	C135.856537,353.412933 127.588715,337.192596 119.183731,321.047760 
	C116.757607,316.387512 114.410507,311.686127 111.913422,306.780121 
	C99.572708,313.969238 87.621185,320.856934 75.761147,327.898743 
	C73.139748,329.455170 71.028915,329.877594 68.192291,328.150787 
	C53.404671,319.148682 38.460907,310.403015 23.677618,301.393921 
	C22.421457,300.628448 21.345364,298.633118 21.220327,297.123383 
	C20.863707,292.817474 21.012751,288.467255 21.013414,284.134491 
	C21.021690,230.139679 21.094341,176.144730 20.955318,122.150307 
	C20.943392,117.517693 22.573818,115.165489 26.547470,112.911301 
	C43.926388,103.052567 61.120125,92.862640 78.256210,82.584740 
	C81.524094,80.624718 84.066032,80.372467 87.379257,82.408836 
	C102.189728,91.511627 117.125725,100.410370 132.032562,109.355865 
	C133.283936,110.106812 134.655273,110.657883 136.736115,111.676361 
	C136.842880,109.480431 136.990082,107.776375 136.998703,106.071602 
	C137.088715,88.240257 137.225327,70.408607 137.176758,52.577515 
	C137.166092,48.662651 138.469238,46.558018 142.114014,44.514488 
	C160.700836,34.093334 179.067001,23.273384 197.375122,12.365945 
	C200.135727,10.721263 202.006729,10.877957 204.588150,12.410180 
	C223.325974,23.532139 242.149460,34.509712 260.906464,45.599579 
	C261.889221,46.180599 262.902435,47.240345 263.246033,48.291470 
	C267.507538,61.328598 271.483826,74.460899 275.881989,87.450706 
	C278.378235,94.823334 281.514343,101.979317 284.671967,110.021667 
	C299.179260,101.718506 313.660614,93.430199 328.253662,85.077965 
	C343.512360,94.102280 358.543304,103.470589 374.079041,111.909760 
	C379.229706,114.707657 380.126129,117.822662 380.109161,123.005966 
	C379.990723,159.168472 380.168915,195.331955 380.252075,231.993744 
M198.257767,347.500061 
	C198.161545,307.176392 198.059998,266.852753 197.981888,226.529053 
	C197.977020,224.014893 198.045319,221.926147 195.213440,220.310715 
	C182.658142,213.148560 170.291443,205.656143 157.828079,198.331619 
	C156.816986,197.737427 155.591034,197.508850 153.918762,196.917130 
	C153.918762,229.381821 153.918762,261.131104 153.918762,292.880402 
	C152.001068,291.011536 150.859879,288.907227 149.761337,286.780884 
	C128.645935,245.910492 107.613960,204.996445 86.288246,164.236099 
	C84.402763,160.632324 81.071281,157.300659 77.613205,155.092758 
	C66.137123,147.765488 54.302807,140.998505 42.591839,134.040253 
	C37.847336,131.221237 33.066658,128.463104 27.564951,125.246025 
	C27.564951,128.320572 27.566971,130.306137 27.564655,132.291687 
	C27.507326,181.446533 27.962795,230.611038 27.038467,279.749573 
	C26.801212,292.362427 30.098976,299.968201 41.559368,305.235840 
	C51.263714,309.696350 60.178436,315.874756 70.644424,321.995850 
	C70.644424,285.720245 70.644424,250.691681 70.644424,215.663101 
	C72.165764,216.433762 72.698250,217.252731 73.145699,218.115784 
	C95.159042,260.575012 117.734390,302.757172 138.889938,345.639709 
	C147.277573,362.641510 156.947098,377.111328 175.044006,384.432892 
	C175.194351,384.493713 175.311325,384.632172 175.454803,384.715515 
	C182.848160,389.009766 190.242706,393.301971 198.258179,397.954895 
	C198.258179,380.786011 198.258179,364.643036 198.257767,347.500061 
M215.779648,122.699409 
	C211.179459,113.489746 206.376526,104.373749 202.061371,95.032425 
	C199.773056,90.078751 196.380493,86.687302 191.699753,84.066940 
	C182.423920,78.874168 173.312943,73.386620 164.141098,68.008514 
	C157.243240,63.963783 150.356720,59.899696 143.116104,55.638824 
	C142.875305,57.173923 142.687454,57.826313 142.682892,58.479980 
	C142.552536,77.138504 142.423737,95.797112 142.368088,114.455933 
	C142.364792,115.560768 142.833832,116.733109 143.318344,117.763397 
	C150.875504,133.833481 158.449478,149.895767 166.081436,165.930420 
	C167.268814,168.425095 168.761765,170.774338 170.261078,173.454865 
	C172.715317,172.169998 174.640839,171.234650 176.497116,170.177689 
	C185.012039,165.329254 194.076462,161.203445 201.847641,155.360565 
	C209.385498,149.693085 215.158768,150.679626 221.959259,155.955109 
	C226.253860,159.286621 231.360748,161.571045 236.103287,164.325134 
	C236.353851,164.038727 236.604401,163.752319 236.854965,163.465912 
	C229.919708,150.109329 222.984467,136.752762 215.779648,122.699409 
M287.051086,151.500000 
	C287.085724,166.315536 287.238525,181.132446 287.065704,195.945572 
	C287.026184,199.333847 288.145569,201.546722 290.660156,203.584930 
	C300.868958,211.859573 310.978424,220.256699 321.144348,228.584396 
	C324.262726,231.138901 327.444550,233.615982 331.334961,236.716400 
	C331.334961,206.586914 331.366058,177.629440 331.229706,148.672760 
	C331.223816,147.415253 329.967468,145.687622 328.805969,144.984970 
	C316.875977,137.767670 304.853149,130.703430 292.833221,123.635651 
	C291.190399,122.669662 289.421753,121.917709 287.053528,120.739326 
	C287.053528,131.236145 287.053528,140.868073 287.051086,151.500000 
M201.347061,17.640924 
	C200.872879,17.714804 200.322357,17.657059 199.935501,17.881470 
	C182.551010,27.965990 165.183990,38.080624 147.800827,48.167465 
	C146.831924,48.729694 145.743881,49.086639 144.711288,49.539131 
	C146.096695,50.978790 146.252090,51.325592 146.519104,51.482937 
	C163.268188,61.351994 179.966187,71.311646 196.871521,80.905899 
	C198.674896,81.929375 202.140228,81.618187 204.075790,80.550537 
	C214.834091,74.616295 225.352310,68.247345 235.964264,62.046959 
	C242.575302,58.184242 249.206802,54.356541 256.652618,50.035175 
	C237.814987,38.954220 219.946732,28.443489 201.347061,17.640924 
M36.244545,123.222572 
	C50.955681,131.941696 65.742302,140.537598 80.323372,149.469070 
	C83.843147,151.625092 86.555481,152.023376 90.191879,149.839996 
	C101.863747,142.831924 113.730606,136.149231 125.497375,129.298325 
	C130.131683,126.600105 134.700363,123.789223 139.819550,120.717224 
	C121.098305,109.636559 103.304901,99.000839 85.341354,88.660690 
	C83.821037,87.785561 80.798973,88.232567 79.093399,89.179718 
	C69.659309,94.418648 60.427765,100.021385 51.105755,105.463387 
	C43.845898,109.701553 36.555271,113.887024 28.651150,118.458656 
	C31.431299,120.249344 33.501820,121.582962 36.244545,123.222572 
M175.559860,177.048462 
	C168.912399,180.978409 162.264938,184.908356 155.188904,189.091675 
	C156.596069,190.205292 157.292358,190.901413 158.113831,191.384750 
	C171.117996,199.035706 184.210464,206.540421 197.103867,214.373016 
	C200.318268,216.325745 202.644913,216.075623 205.705246,214.231415 
	C217.920563,206.870346 230.281982,199.751678 242.590256,192.544861 
	C246.988693,189.969452 251.389755,187.398499 256.514771,184.401459 
	C253.858292,182.336578 251.929214,180.519485 249.715363,179.169373 
	C237.964493,172.003113 226.205353,164.843826 214.267731,157.998352 
	C212.706345,157.102997 209.698364,157.303497 208.045944,158.225311 
	C197.330978,164.202667 186.805923,170.520493 175.559860,177.048462 
M370.395142,120.699821 
	C371.122650,120.052963 371.850128,119.406097 372.700195,118.650230 
	C372.061768,118.115562 371.627533,117.634109 371.094116,117.322388 
	C357.495483,109.376038 343.929352,101.371429 330.211029,93.636833 
	C328.882782,92.887932 326.318329,93.290665 324.810669,94.080566 
	C318.205383,97.541206 311.766449,101.321182 305.289703,105.024704 
	C300.138336,107.970337 295.019653,110.973038 288.993988,114.468056 
	C304.236664,123.327553 318.531006,131.699173 332.933746,139.880020 
	C334.018188,140.495987 336.143341,140.231216 337.330841,139.565857 
	C348.177399,133.488342 358.923279,127.231216 370.395142,120.699821 
z"/>
<path fill="#FDFDFD" opacity="1.000000" stroke="none" 
	d="
M198.257965,348.000061 
	C198.258179,364.643036 198.258179,380.786011 198.258179,397.954895 
	C190.242706,393.301971 182.848160,389.009766 175.454803,384.715515 
	C175.311325,384.632172 175.194351,384.493713 175.044006,384.432892 
	C156.947098,377.111328 147.277573,362.641510 138.889938,345.639709 
	C117.734390,302.757172 95.159042,260.575012 73.145699,218.115784 
	C72.698250,217.252731 72.165764,216.433762 70.644424,215.663101 
	C70.644424,250.691681 70.644424,285.720245 70.644424,321.995850 
	C60.178436,315.874756 51.263714,309.696350 41.559368,305.235840 
	C30.098976,299.968201 26.801212,292.362427 27.038467,279.749573 
	C27.962795,230.611038 27.507326,181.446533 27.564655,132.291687 
	C27.566971,130.306137 27.564951,128.320572 27.564951,125.246025 
	C33.066658,128.463104 37.847336,131.221237 42.591839,134.040253 
	C54.302807,140.998505 66.137123,147.765488 77.613205,155.092758 
	C81.071281,157.300659 84.402763,160.632324 86.288246,164.236099 
	C107.613960,204.996445 128.645935,245.910492 149.761337,286.780884 
	C150.859879,288.907227 152.001068,291.011536 153.918762,292.880402 
	C153.918762,261.131104 153.918762,229.381821 153.918762,196.917130 
	C155.591034,197.508850 156.816986,197.737427 157.828079,198.331619 
	C170.291443,205.656143 182.658142,213.148560 195.213440,220.310715 
	C198.045319,221.926147 197.977020,224.014893 197.981888,226.529053 
	C198.059998,266.852753 198.161545,307.176392 198.257965,348.000061 
z"/>
<path fill="#FDFDFD" opacity="1.000000" stroke="none" 
	d="
M215.914429,123.047791 
	C222.984467,136.752762 229.919708,150.109329 236.854965,163.465912 
	C236.604401,163.752319 236.353851,164.038727 236.103287,164.325134 
	C231.360748,161.571045 226.253860,159.286621 221.959259,155.955109 
	C215.158768,150.679626 209.385498,149.693085 201.847641,155.360565 
	C194.076462,161.203445 185.012039,165.329254 176.497116,170.177689 
	C174.640839,171.234650 172.715317,172.169998 170.261078,173.454865 
	C168.761765,170.774338 167.268814,168.425095 166.081436,165.930420 
	C158.449478,149.895767 150.875504,133.833481 143.318344,117.763397 
	C142.833832,116.733109 142.364792,115.560768 142.368088,114.455933 
	C142.423737,95.797112 142.552536,77.138504 142.682892,58.479980 
	C142.687454,57.826313 142.875305,57.173923 143.116104,55.638824 
	C150.356720,59.899696 157.243240,63.963783 164.141098,68.008514 
	C173.312943,73.386620 182.423920,78.874168 191.699753,84.066940 
	C196.380493,86.687302 199.773056,90.078751 202.061371,95.032425 
	C206.376526,104.373749 211.179459,113.489746 215.914429,123.047791 
z"/>
<path fill="#FDFDFD" opacity="1.000000" stroke="none" 
	d="
M287.052307,151.000000 
	C287.053528,140.868073 287.053528,131.236145 287.053528,120.739326 
	C289.421753,121.917709 291.190399,122.669662 292.833221,123.635651 
	C304.853149,130.703430 316.875977,137.767670 328.805969,144.984970 
	C329.967468,145.687622 331.223816,147.415253 331.229706,148.672760 
	C331.366058,177.629440 331.334961,206.586914 331.334961,236.716400 
	C327.444550,233.615982 324.262726,231.138901 321.144348,228.584396 
	C310.978424,220.256699 300.868958,211.859573 290.660156,203.584930 
	C288.145569,201.546722 287.026184,199.333847 287.065704,195.945572 
	C287.238525,181.132446 287.085724,166.315536 287.052307,151.000000 
z"/>
<path fill="#FDFDFD" opacity="1.000000" stroke="none" 
	d="
M201.712769,17.786842 
	C219.946732,28.443489 237.814987,38.954220 256.652618,50.035175 
	C249.206802,54.356541 242.575302,58.184242 235.964264,62.046959 
	C225.352310,68.247345 214.834091,74.616295 204.075790,80.550537 
	C202.140228,81.618187 198.674896,81.929375 196.871521,80.905899 
	C179.966187,71.311646 163.268188,61.351994 146.519104,51.482937 
	C146.252090,51.325592 146.096695,50.978790 144.711288,49.539131 
	C145.743881,49.086639 146.831924,48.729694 147.800827,48.167465 
	C165.183990,38.080624 182.551010,27.965990 199.935501,17.881470 
	C200.322357,17.657059 200.872879,17.714804 201.712769,17.786842 
z"/>
<path fill="#FDFDFD" opacity="1.000000" stroke="none" 
	d="
M35.908440,123.069572 
	C33.501820,121.582962 31.431299,120.249344 28.651150,118.458656 
	C36.555271,113.887024 43.845898,109.701553 51.105755,105.463387 
	C60.427765,100.021385 69.659309,94.418648 79.093399,89.179718 
	C80.798973,88.232567 83.821037,87.785561 85.341354,88.660690 
	C103.304901,99.000839 121.098305,109.636559 139.819550,120.717224 
	C134.700363,123.789223 130.131683,126.600105 125.497375,129.298325 
	C113.730606,136.149231 101.863747,142.831924 90.191879,149.839996 
	C86.555481,152.023376 83.843147,151.625092 80.323372,149.469070 
	C65.742302,140.537598 50.955681,131.941696 35.908440,123.069572 
z"/>
<path fill="#FDFDFD" opacity="1.000000" stroke="none" 
	d="
M175.889252,176.887619 
	C186.805923,170.520493 197.330978,164.202667 208.045944,158.225311 
	C209.698364,157.303497 212.706345,157.102997 214.267731,157.998352 
	C226.205353,164.843826 237.964493,172.003113 249.715363,179.169373 
	C251.929214,180.519485 253.858292,182.336578 256.514771,184.401459 
	C251.389755,187.398499 246.988693,189.969452 242.590256,192.544861 
	C230.281982,199.751678 217.920563,206.870346 205.705246,214.231415 
	C202.644913,216.075623 200.318268,216.325745 197.103867,214.373016 
	C184.210464,206.540421 171.117996,199.035706 158.113831,191.384750 
	C157.292358,190.901413 156.596069,190.205292 155.188904,189.091675 
	C162.264938,184.908356 168.912399,180.978409 175.889252,176.887619 
z"/>
<path fill="#FCFCFC" opacity="1.000000" stroke="none" 
	d="
M370.046875,120.863182 
	C358.923279,127.231216 348.177399,133.488342 337.330841,139.565857 
	C336.143341,140.231216 334.018188,140.495987 332.933746,139.880020 
	C318.531006,131.699173 304.236664,123.327553 288.993988,114.468056 
	C295.019653,110.973038 300.138336,107.970337 305.289703,105.024704 
	C311.766449,101.321182 318.205383,97.541206 324.810669,94.080566 
	C326.318329,93.290665 328.882782,92.887932 330.211029,93.636833 
	C343.929352,101.371429 357.495483,109.376038 371.094116,117.322388 
	C371.627533,117.634109 372.061768,118.115562 372.700195,118.650230 
	C371.850128,119.406097 371.122650,120.052963 370.046875,120.863182 
z"/>
</svg>