<?xml version="1.0" encoding="UTF-8" standalone="no"?>
<svg
   shape-rendering="geometricPrecision"
   text-rendering="geometricPrecision"
   image-rendering="optimizeQuality"
   fill-rule="evenodd"
   clip-rule="evenodd"
   viewBox="0 0 2753.2031 742.72454"
   version="1.1"
   id="svg20"
   sodipodi:docname="innv0_logo.svg"
   inkscape:version="1.4 (86a8ad7, 2024-10-11)"
   width="2753.2031"
   height="742.72455"
   xmlns:inkscape="http://www.inkscape.org/namespaces/inkscape"
   xmlns:sodipodi="http://sodipodi.sourceforge.net/DTD/sodipodi-0.dtd"
   xmlns="http://www.w3.org/2000/svg"
   xmlns:svg="http://www.w3.org/2000/svg">
  <defs
     id="defs20" />
  <sodipodi:namedview
     id="namedview20"
     pagecolor="#ffffff"
     bordercolor="#000000"
     borderopacity="0.25"
     inkscape:showpageshadow="2"
     inkscape:pageopacity="0.0"
     inkscape:pagecheckerboard="0"
     inkscape:deskcolor="#d1d1d1"
     inkscape:zoom="0.23258977"
     inkscape:cx="2203.4503"
     inkscape:cy="-131.13216"
     inkscape:window-width="1920"
     inkscape:window-height="1009"
     inkscape:window-x="1912"
     inkscape:window-y="-8"
     inkscape:window-maximized="1"
     inkscape:current-layer="svg20" />
  <path
     fill="#525252"
     d="m 0,-176.27544 h 6 c -2.66667,1.33333 -4.66666,3.33333 -6,6 z"
     id="path1" />
  <path
     fill="#505050"
     d="m 915,-176.27544 h 6 v 6 c -1.333,-2.66667 -3.333,-4.66667 -6,-6"
     id="path2" />
  <path
     fill="#070707"
     d="m 336.59492,78.473197 c 10.32032,13.8073 46.43216,79.433663 64.34033,114.316873 33.32014,-17.49402 51.13433,-27.61754 74.86709,-44.16434 48.78176,30.31122 114.11631,63.51764 157.08538,98.94912 -0.51317,-62.83419 0.82511,-121.3215 1.61228,-180.850293 21.9224,-13.57728 21.68049,-12.0013 101.5,-56.999997 35.878,20.857997 71.711,41.857997 107.5,62.999997 1.333,2 2.667,4 4,6 1.745,89.787003 2.578,179.621003 2.5,269.500003 0.153,43.537 -0.347,87.037 -1.5,130.5 -2.511,2.843 -5.344,5.343 -8.5,7.5 -34,19.667 -68,39.333 -102,59 -2.333,0.667 -4.667,0.667 -7,0 -52.767,-42.212 -106.434,-83.212 -161,-123 -1.293,-0.49 -2.627,-0.657 -4,-0.5 1.518,43.148 2.184,86.314 2,129.5 0.156,30.893 -0.344,61.726 -1.5,92.5 -1.5,2.833 -3.667,5 -6.5,6.5 -34.464,20.301 -68.797,40.801 -103,61.5 -34.463,-19.967 -68.797,-40.134 -103,-60.5 -4.801,-3.799 -9.301,-7.966 -13.5,-12.5 -7.253,-12.171 -14.253,-24.504 -21,-37 -18.667,-36 -37.333,-72 -56,-108 -25.916,15.041 -51.749,30.207 -77.5,45.5 -3.092,1.864 -6.426,3.031 -10,3.5 -36.54864,-16.68517 -71.76711,-41.18746 -106.5,-62 -5.83001,-7.27367 -5.22827,-159.79742 -4,-395.000003 1.4864,-6.831 5.3197,-11.998 11.5,-15.5 C 115.329,48.395557 161.92783,22.837997 199.59883,0 241.73159,23.978487 298.34612,58.894807 344.1189,83.847467"
     opacity="0.999"
     id="path3"
     sodipodi:nodetypes="cccccccccccccccccccccccccccccc" />
  <path
     fill="#fbfbfb"
     d="m 197,15.72456 c 4.787,-0.53 9.12,0.637 13,3.5 38.498,22.414997 76.832,45.080997 115,67.999997 -37.407,22.399003 -75.074,44.399003 -113,66.000003 -6.931,1.462 -13.264,0.128 -19,-4 -37.166,-22.082 -74.166,-44.415 -111,-67.000003 38.263,-22.462 76.597,-44.629 115,-66.499997"
     id="path4" />
  <path
     fill="#fafafa"
     d="m 733,26.724557 c 2.027,-0.162 4.027,0.005 6,0.5 30.667,17.667 61.333,35.333 92,53 1.507,0.837 2.007,2.004 1.5,3.5 -25.462,16.317003 -51.629,31.483003 -78.5,45.500003 -2.667,0.667 -5.333,0.667 -8,0 -31.995,-17.995 -63.662,-36.495003 -95,-55.500003 26.741,-16.704 54.074,-32.37 82,-47"
     id="path5" />
  <path
     fill="#070807"
     d="m 646,39.724557 q 1.9995,1.0005 0,0"
     id="path7" />
  <path
     fill="#fcfcfc"
     d="m 646,86.724557 c 30.803,17.569003 61.47,35.403003 92,53.500003 2.117,1.731 3.617,3.898 4.5,6.5 0.667,64.667 0.667,129.333 0,194 -31.583,-24.912 -62.583,-50.579 -93,-77 l -3,-6 C 646,200.72556 645.833,143.72556 646,86.724557 M 452,512.72456 c 0.332,59.836 -10e-4,119.502 -1,179 -24.68,-14.675 -49.68,-28.842 -75,-42.5 -12.207,-9.207 -22.707,-20.04 -31.5,-32.5 -7.505,-11.672 -14.505,-23.672 -21,-36 -47.312,-94.626 -95.645,-188.626 -145,-282 l -4,-4 c -0.167,77.335 -0.667,154.669 -1.5,232 -12.499,-8.084 -25.166,-15.917 -38,-23.5 -13.654,-6.826 -26.988,-14.159 -40,-22 -8.4248,-7.68 -15.7412,-10.73088 -17.6497,-22.05088 -1.0522,-9.129 0.5975,-24.74412 0.6497,-33.94912 0.789,-109.497 1.289,-218.997 1.5,-328.500003 38.69,22.038003 76.857,44.871003 114.5,68.500003 9.257,8.676 16.424,18.843 21.5,30.5 43.333,84 86.667,168 130,252 2.501,5.006 5.501,9.673 9,14 0.5,-69.333 0.667,-138.666 0.5,-208 33.99038,17.40258 60.7371,33.41706 89,49.5 2.46,1.458 4.627,3.291 6.5,5.5 1.49,67.942 1.99,135.942 1.5,204"
     id="path8"
     sodipodi:nodetypes="cccccccccccccccccccccccccccc" />
  <path
     fill="#fcfdfc"
     d="m 359,117.72456 c 2.414,1.411 4.081,3.411 5,6 -2.414,-1.411 -4.081,-3.411 -5,-6"
     opacity="0.231"
     id="path9" />
  <path
     fill="#fcfdfc"
     d="m 375,133.72456 c 1.904,0.238 3.238,1.238 4,3 -1.904,-0.238 -3.238,-1.238 -4,-3"
     opacity="0.184"
     id="path10" />
  <path
     fill="#fcfdfc"
     d="m 518,157.72456 c -3.228,-2.54 -6.395,-5.207 -9.5,-8 -1.59,-2.15 -2.257,-4.483 -2,-7 2.986,5.798 6.82,10.798 11.5,15"
     opacity="0.195"
     id="path11" />
  <path
     fill="#fcfdfc"
     d="m 518,157.72456 c 1.762,0.762 2.762,2.096 3,4 -1.762,-0.762 -2.762,-2.096 -3,-4"
     opacity="0.186"
     id="path12" />
  <path
     fill="#fcfdfc"
     d="m 521,161.72456 c 1.406,0.473 2.073,1.473 2,3 -1.406,-0.473 -2.073,-1.473 -2,-3"
     opacity="0.227"
     id="path13" />
  <path
     fill="#fafafa"
     d="m 523,164.72456 c 2.358,6.529 6.691,11.362 13,14.5 -0.837,1.011 -1.17,2.178 -1,3.5 -0.667,0 -1,-0.333 -1,-1 -2.217,-2.724 -4.717,-5.391 -7.5,-8 -1.741,-2.809 -2.908,-5.809 -3.5,-9"
     opacity="0.18"
     id="path14" />
  <path
     fill="#050605"
     d="m 553,164.72456 c 3.633,-0.057 3.8,0.943 0.5,3 -0.483,-0.948 -0.649,-1.948 -0.5,-3"
     opacity="0.018"
     id="path15" />
  <path
     fill="#fbfbfb"
     d="m 475,167.72456 c 26.81249,11.37431 75.71116,43.5324 97.47602,52.05088 -15.21495,8.77654 -106.4418,66.70903 -121.25146,72.52402 -19.90931,-11.25892 -62.30756,-36.6159 -91.72456,-54.5749 -0.667,-0.667 -0.667,-1.333 0,-2 38.481,-22.819 76.981,-45.486 115.5,-68"
     id="path16"
     sodipodi:nodetypes="cccccc" />
  <path
     fill="#777777"
     d="m 452,512.72456 q 1.9965,89.7525 0,180 c -0.607,-0.124 -0.94,-0.457 -1,-1 0.999,-59.498 1.332,-119.164 1,-179"
     id="path17" />
  <path
     fill="#484848"
     d="m 0,736.72456 c 1.33334,2.667 3.33333,4.667 6,6 H 0 Z"
     id="path18" />
  <path
     fill="#6a6d70"
     d="m 921,736.72456 v 4 c -2.652,-0.09 -4.985,0.576 -7,2 h -2 c -0.131,-0.876 0.202,-1.543 1,-2 q 2.916,-1.0335 6,-1.5 c 0.566,-0.995 1.233,-1.828 2,-2.5"
     id="path19" />
  <path
     fill="#151515"
     d="m 921,740.72456 v 2 h -7 c 2.015,-1.424 4.348,-2.09 7,-2"
     id="path20" />
  <text
     xml:space="preserve"
     style="font-style:normal;font-variant:normal;font-weight:bold;font-stretch:normal;font-size:666.667px;font-family:Consolas;-inkscape-font-specification:'Consolas Bold';text-align:start;writing-mode:lr-tb;direction:ltr;text-anchor:start;fill:#000000"
     x="937.77252"
     y="594.89471"
     id="text1"><tspan
       sodipodi:role="line"
       id="tspan1"
       x="937.77252"
       y="594.89471">iNNv0</tspan></text>
</svg>
