<?xml version="1.0" encoding="UTF-8" standalone="no"?>
<svg
   shape-rendering="geometricPrecision"
   text-rendering="geometricPrecision"
   image-rendering="optimizeQuality"
   fill-rule="evenodd"
   clip-rule="evenodd"
   viewBox="0 0 921 919"
   version="1.1"
   id="svg20"
   sodipodi:docname="innv0_logo.svg"
   inkscape:version="1.4 (86a8ad7, 2024-10-11)"
   xmlns:inkscape="http://www.inkscape.org/namespaces/inkscape"
   xmlns:sodipodi="http://sodipodi.sourceforge.net/DTD/sodipodi-0.dtd"
   xmlns="http://www.w3.org/2000/svg"
   xmlns:svg="http://www.w3.org/2000/svg" width="80" height="80">
  <defs
     id="defs20" />
  <sodipodi:namedview
     id="namedview20"
     pagecolor="#ffffff"
     bordercolor="#000000"
     borderopacity="0.25"
     inkscape:showpageshadow="2"
     inkscape:pageopacity="0.0"
     inkscape:pagecheckerboard="0"
     inkscape:deskcolor="#d1d1d1"
     inkscape:zoom="0.93035909"
     inkscape:cx="460.57485"
     inkscape:cy="459.5"
     inkscape:window-width="1920"
     inkscape:window-height="1057"
     inkscape:window-x="3832"
     inkscape:window-y="-8"
     inkscape:window-maximized="1"
     inkscape:current-layer="svg20" />
  <path
     fill="#525252"
     d="M-.5-.5h6C2.83333.833333.833333 2.83333-.5 5.5z"
     id="path1" />
  <path
     fill="#505050"
     d="M914.5-.5h6v6c-1.333-2.66667-3.333-4.666667-6-6"
     id="path2" />
  <path
     fill="#070707"
     d="m 336.09492,254.24864 c 10.32032,13.8073 46.43216,79.43366 64.34033,114.31687 33.32014,-17.49402 51.13433,-27.61754 74.86709,-44.16434 48.78176,30.31122 114.11631,63.51764 157.08538,98.94912 C 631.87455,360.5161 633.21283,302.02879 634,242.5 c 21.9224,-13.57728 21.68049,-12.0013 101.5,-57 35.878,20.858 71.711,41.858 107.5,63 1.333,2 2.667,4 4,6 1.745,89.787 2.578,179.621 2.5,269.5 0.153,43.537 -0.347,87.037 -1.5,130.5 -2.511,2.843 -5.344,5.343 -8.5,7.5 -34,19.667 -68,39.333 -102,59 -2.333,0.667 -4.667,0.667 -7,0 -52.767,-42.212 -106.434,-83.212 -161,-123 -1.293,-0.49 -2.627,-0.657 -4,-0.5 1.518,43.148 2.184,86.314 2,129.5 0.156,30.893 -0.344,61.726 -1.5,92.5 -1.5,2.833 -3.667,5 -6.5,6.5 -34.464,20.301 -68.797,40.801 -103,61.5 -34.463,-19.967 -68.797,-40.134 -103,-60.5 -4.801,-3.799 -9.301,-7.966 -13.5,-12.5 -7.253,-12.171 -14.253,-24.504 -21,-37 -18.667,-36 -37.333,-72 -56,-108 -25.916,15.041 -51.749,30.207 -77.5,45.5 -3.092,1.864 -6.426,3.031 -10,3.5 -36.54864,-16.68517 -71.76711,-41.18746 -106.5,-62 -5.830014,-7.27367 -5.22827,-159.79742 -4,-395 1.4864,-6.831 5.3197,-11.998 11.5,-15.5 38.329,-21.829 84.92783,-47.38656 122.59883,-70.22456 42.13276,23.97849 98.74729,58.89481 144.52007,83.84747"
     opacity="0.999"
     id="path3"
     sodipodi:nodetypes="cccccccccccccccccccccccccccccc" />
  <path
     fill="#fbfbfb"
     d="M196.5 191.5c4.787-.53 9.12.637 13 3.5 38.498 22.415 76.832 45.081 115 68-37.407 22.399-75.074 44.399-113 66-6.931 1.462-13.264.128-19-4-37.166-22.082-74.166-44.415-111-67 38.263-22.462 76.597-44.629 115-66.5"
     id="path4" />
  <path
     fill="#fafafa"
     d="M732.5 202.5c2.027-.162 4.027.005 6 .5 30.667 17.667 61.333 35.333 92 53 1.507.837 2.007 2.004 1.5 3.5-25.462 16.317-51.629 31.483-78.5 45.5-2.667.667-5.333.667-8 0-31.995-17.995-63.662-36.495-95-55.5 26.741-16.704 54.074-32.37 82-47"
     id="path5" />
  <path
     fill="#070807"
     d="M645.5 215.5q1.9995 1.0005 0 0"
     id="path7" />
  <path
     fill="#fcfcfc"
     d="m 645.5,262.5 c 30.803,17.569 61.47,35.403 92,53.5 2.117,1.731 3.617,3.898 4.5,6.5 0.667,64.667 0.667,129.333 0,194 -31.583,-24.912 -62.583,-50.579 -93,-77 l -3,-6 c -0.5,-56.999 -0.667,-113.999 -0.5,-171 m -194,426 c 0.332,59.836 -10e-4,119.502 -1,179 -24.68,-14.675 -49.68,-28.842 -75,-42.5 -12.207,-9.207 -22.707,-20.04 -31.5,-32.5 -7.505,-11.672 -14.505,-23.672 -21,-36 -47.312,-94.626 -95.645,-188.626 -145,-282 l -4,-4 c -0.167,77.335 -0.667,154.669 -1.5,232 -12.499,-8.084 -25.166,-15.917 -38,-23.5 -13.654,-6.826 -26.988,-14.159 -40,-22 C 86.0752,649.32 78.758792,646.26912 76.850292,634.94912 75.798092,625.82012 77.4478,610.205 77.5,601 78.289,491.503 78.789,382.003 79,272.5 c 38.69,22.038 76.857,44.871 114.5,68.5 9.257,8.676 16.424,18.843 21.5,30.5 43.333,84 86.667,168 130,252 2.501,5.006 5.501,9.673 9,14 0.5,-69.333 0.667,-138.666 0.5,-208 33.99038,17.40258 60.7371,33.41706 89,49.5 2.46,1.458 4.627,3.291 6.5,5.5 1.49,67.942 1.99,135.942 1.5,204"
     id="path8"
     sodipodi:nodetypes="cccccccccccccccccccccccccccc" />
  <path
     fill="#fcfdfc"
     d="M358.5 293.5c2.414 1.411 4.081 3.411 5 6-2.414-1.411-4.081-3.411-5-6"
     opacity=".231"
     id="path9" />
  <path
     fill="#fcfdfc"
     d="M374.5 309.5c1.904.238 3.238 1.238 4 3-1.904-.238-3.238-1.238-4-3"
     opacity=".184"
     id="path10" />
  <path
     fill="#fcfdfc"
     d="M517.5 333.5c-3.228-2.54-6.395-5.207-9.5-8-1.59-2.15-2.257-4.483-2-7 2.986 5.798 6.82 10.798 11.5 15"
     opacity=".195"
     id="path11" />
  <path
     fill="#fcfdfc"
     d="M517.5 333.5c1.762.762 2.762 2.096 3 4-1.762-.762-2.762-2.096-3-4"
     opacity=".186"
     id="path12" />
  <path
     fill="#fcfdfc"
     d="M520.5 337.5c1.406.473 2.073 1.473 2 3-1.406-.473-2.073-1.473-2-3"
     opacity=".227"
     id="path13" />
  <path
     fill="#fafafa"
     d="M522.5 340.5c2.358 6.529 6.691 11.362 13 14.5-.837 1.011-1.17 2.178-1 3.5-.667 0-1-.333-1-1-2.217-2.724-4.717-5.391-7.5-8-1.741-2.809-2.908-5.809-3.5-9"
     opacity=".18"
     id="path14" />
  <path
     fill="#050605"
     d="M552.5 340.5c3.633-.057 3.8.943.5 3-.483-.948-.649-1.948-.5-3"
     opacity=".018"
     id="path15" />
  <path
     fill="#fbfbfb"
     d="m 474.5,343.5 c 26.81249,11.37431 75.71116,43.5324 97.47602,52.05088 -15.21495,8.77654 -106.4418,66.70903 -121.25146,72.52402 C 430.81525,456.81598 388.417,431.459 359,413.5 c -0.667,-0.667 -0.667,-1.333 0,-2 38.481,-22.819 76.981,-45.486 115.5,-68"
     id="path16"
     sodipodi:nodetypes="cccccc" />
  <path
     fill="#777"
     d="M451.5 688.5q1.9965 89.7525 0 180c-.607-.124-.94-.457-1-1 .999-59.498 1.332-119.164 1-179"
     id="path17" />
  <path
     fill="#484848"
     d="M-.5 912.5c1.333333 2.667 3.33333 4.667 6 6h-6z"
     id="path18" />
  <path
     fill="#6a6d70"
     d="M920.5 912.5v4c-2.652-.09-4.985.576-7 2h-2c-.131-.876.202-1.543 1-2q2.916-1.0335 6-1.5c.566-.995 1.233-1.828 2-2.5"
     id="path19" />
  <path
     fill="#151515"
     d="M920.5 916.5v2h-7c2.015-1.424 4.348-2.09 7-2"
     id="path20" />
</svg>
